<?xml version="1.0" encoding="utf-8"?>
<!-- Generator: Adobe Illustrator 25.0.1, SVG Export Plug-In . SVG Version: 6.00 Build 0)  -->
<svg version="1.1" id="Layer_1" xmlns="http://www.w3.org/2000/svg" xmlns:xlink="http://www.w3.org/1999/xlink" x="0px" y="0px"
	 viewBox="0 0 776.53 370.21" style="enable-background:new 0 0 776.53 370.21;" xml:space="preserve">
<style type="text/css">
	.st0{fill:#2724A0;}
	.st1{fill:#00CEFF;}
	.st2{fill:#69E084;}
	.st3{fill:#00D6F2;}
	.st4{fill:#A2C05E;}
	.st5{fill:#489EEB;}
	.st6{fill:#FFC53F;}
	.st7{fill:#F5673F;}
	.st8{fill:#FE0072;}
	.st9{fill:#8180C2;}
	.st10{fill:#5FCA77;}
	.st11{fill:#00C1DA;}
	.st12{fill:#92AD55;}
	.st13{fill:#418ED4;}
	.st14{fill:#E7B239;}
	.st15{fill:#DD5D39;}
	.st16{fill:#E60067;}
	.st17{fill:#7473AF;}
	.st18{fill:#54B36A;}
	.st19{fill:#00ABC2;}
	.st20{fill:#829A4B;}
	.st21{fill:#3A7EBC;}
	.st22{fill:#CE9F33;}
	.st23{fill:#C45333;}
	.st24{fill:#CD005C;}
	.st25{fill:#67669B;}
	.st26{fill:#FFFFFF;}
</style>
<g>
	<g>
		<g>
			<g>
				<g>
					<path class="st0" d="M22.76,146.23v85.52c0,6.45,1.67,11.41,5.02,14.89c3.35,3.48,8.75,5.21,16.21,5.21h22.76
						c7.21,0,12.52-1.74,15.93-5.21c3.41-3.47,5.12-8.44,5.12-14.89v-85.52h22v87.23c0,13.53-3.48,23.71-10.43,30.53
						c-6.95,6.83-17.32,10.24-31.1,10.24H41.34C13.78,274.23,0,260.64,0,233.45v-87.23H22.76z"/>
					<path class="st0" d="M210.3,146.23c18.71,0,33.03,5.31,42.95,15.93c9.92,10.62,14.89,26.74,14.89,48.36
						c0,21.49-4.96,37.48-14.89,47.98c-9.92,10.49-24.24,15.74-42.95,15.74h-17.45c-18.71,0-33.03-5.25-42.95-15.74
						c-9.93-10.49-14.89-26.48-14.89-47.98c0-21.62,4.96-37.74,14.89-48.36c9.92-10.62,24.24-15.93,42.95-15.93H210.3z
						 M192.85,168.6c-12.39,0-21.4,3.29-27.02,9.86c-5.63,6.57-8.44,17.26-8.44,32.05c0,14.67,2.78,25.22,8.34,31.67
						c5.56,6.45,14.6,9.67,27.12,9.67h17.45c12.26,0,21.21-3.25,26.83-9.77c5.63-6.51,8.44-17.1,8.44-31.76
						c0-14.66-2.78-25.28-8.34-31.86c-5.57-6.57-14.54-9.86-26.93-9.86H192.85z"/>
					<path class="st0" d="M316.68,274.23H294.3v-102.4c0-8.34,2.4-15.07,7.21-20.19c4.8-5.12,12.2-7.68,22.19-7.68
						c8.85,0,15.58,2.12,20.19,6.35c4.61,4.24,8.25,10.02,10.91,17.35l37.36,81.73c0.76,1.52,1.77,2.78,3.03,3.8
						c1.26,1.01,2.97,1.52,5.12,1.52c2.4,0,4.27-0.66,5.59-1.99c1.33-1.33,1.99-3.06,1.99-5.21V146.23h22.56v102.21
						c0,8.47-2.43,15.26-7.3,20.38c-4.87,5.12-12.23,7.68-22.09,7.68c-4.43,0-8.32-0.54-11.66-1.61c-3.35-1.07-6.26-2.66-8.72-4.74
						c-2.46-2.09-4.58-4.58-6.35-7.49c-1.77-2.9-3.29-6.19-4.55-9.86l-37.36-81.73c-1.64-3.67-4.3-5.5-7.97-5.5
						c-2.53,0-4.45,0.66-5.78,1.99c-1.33,1.33-1.99,3.13-1.99,5.4V274.23z"/>
					<path class="st1" d="M603.22,38.68v34.04h-22.38V38.68H603.22z"/>
				</g>
				<path class="st1" d="M776.53,131.82h-22.42c0-25.13-20.6-45.57-45.92-45.57H475.87c-25.32,0-45.92,20.44-45.92,45.57h-22.42
					c0-37.4,30.66-67.82,68.34-67.82h232.32C745.87,64,776.53,94.42,776.53,131.82z"/>
			</g>
			<g>
				<rect x="754.15" y="146.23" class="st0" width="22.38" height="16.79"/>
				<rect x="754.15" y="177.61" class="st1" width="22.38" height="96.61"/>
			</g>
			<g>
				<path class="st1" d="M477.52,356.82h-1.66c-37.2,0-67.58-29.67-68.28-66.48c8.98-0.92,16.51-3.82,22.45-8.66l-0.07,7.32
					c0,23.51,18.03,42.96,41.13,45.33c0.03,0.88,0.07,1.8,0.18,2.72C471.9,343.98,474.05,350.74,477.52,356.82z"/>
				<path class="st1" d="M776.53,289c0,37.41-30.66,67.82-68.35,67.82h-1.63c3.43-6.05,5.59-12.77,6.22-19.7
					c0.11-0.92,0.14-1.84,0.18-2.79c23.09-2.37,41.16-21.82,41.16-45.33H776.53z"/>
			</g>
			<circle class="st1" cx="592.03" cy="24.58" r="24.58"/>
		</g>
		<path class="st0" d="M557.89,274.23h24.84L539.5,160.45c-2.28-6.07-5.59-10.34-9.96-12.8c-4.36-2.47-9.89-3.7-16.59-3.7
			c-6.83,0-12.42,1.23-16.78,3.7c-4.36,2.47-7.75,6.73-10.15,12.8l-44.94,113.78h24.65l13.17-33.41
			c5.37-13.63,18.53-22.59,33.19-22.59h0c14.84,0,28.13,9.19,33.37,23.07L557.89,274.23z"/>
		<path class="st1" d="M710.35,274.23h24.84l-43.23-113.78c-2.28-6.07-5.59-10.34-9.96-12.8c-4.36-2.47-9.89-3.7-16.59-3.7
			c-6.83,0-12.42,1.23-16.78,3.7c-4.36,2.47-7.75,6.73-10.15,12.8l-44.94,113.78h24.65l13.17-33.41
			c5.37-13.63,18.53-22.59,33.19-22.59h0c14.84,0,28.13,9.19,33.37,23.07L710.35,274.23z"/>
	</g>
	<g>
		<g>
			<path class="st2" d="M664.36,261.32l15.69-15.69c-4.02-4.02-9.56-6.5-15.69-6.5V261.32L664.36,261.32z"/>
			<path class="st3" d="M664.36,261.32v-22.19c-6.13,0-11.68,2.48-15.69,6.5L664.36,261.32L664.36,261.32z"/>
			<path class="st4" d="M686.56,261.32c0-6.13-2.48-11.68-6.5-15.69l-15.69,15.69H686.56z"/>
			<path class="st5" d="M648.67,245.63c-4.02,4.02-6.5,9.56-6.5,15.69h22.19L648.67,245.63z"/>
			<path class="st6" d="M664.36,261.32L664.36,261.32l15.69,15.69c4.02-4.02,6.5-9.56,6.5-15.69H664.36z"/>
			<path class="st7" d="M664.36,283.52c6.13,0,11.68-2.48,15.69-6.5l-15.69-15.69V283.52z"/>
			<path class="st8" d="M648.67,277.02c4.02,4.02,9.56,6.5,15.69,6.5v-22.19L648.67,277.02z"/>
			<path class="st9" d="M664.36,261.32h-22.19c0,6.13,2.48,11.68,6.5,15.69L664.36,261.32L664.36,261.32z"/>
		</g>
		<g>
			<path class="st10" d="M664.36,261.32l12.6-12.6c-3.23-3.23-7.68-5.22-12.6-5.22V261.32L664.36,261.32z"/>
			<path class="st11" d="M664.36,261.32V243.5c-4.92,0-9.38,1.99-12.6,5.22L664.36,261.32L664.36,261.32z"/>
			<path class="st12" d="M682.18,261.32c0-4.92-1.99-9.38-5.22-12.6l-12.6,12.6H682.18z"/>
			<path class="st13" d="M651.76,248.72c-3.22,3.23-5.22,7.68-5.22,12.6h17.82L651.76,248.72z"/>
			<path class="st14" d="M664.36,261.32L664.36,261.32l12.6,12.6c3.23-3.23,5.22-7.68,5.22-12.6H664.36z"/>
			<path class="st15" d="M664.36,279.14c4.92,0,9.38-1.99,12.6-5.22l-12.6-12.6V279.14z"/>
			<path class="st16" d="M651.76,273.92c3.23,3.22,7.68,5.22,12.6,5.22v-17.82L651.76,273.92z"/>
			<path class="st17" d="M664.36,261.32h-17.82c0,4.92,1.99,9.38,5.22,12.6L664.36,261.32L664.36,261.32z"/>
		</g>
		<g>
			<path class="st18" d="M664.36,261.32l10.34-10.34c-2.65-2.65-6.3-4.28-10.34-4.28V261.32L664.36,261.32z"/>
			<path class="st19" d="M664.36,261.32v-14.62c-4.04,0-7.69,1.64-10.34,4.28L664.36,261.32L664.36,261.32z"/>
			<path class="st20" d="M678.98,261.32c0-4.04-1.64-7.69-4.28-10.34l-10.34,10.34H678.98z"/>
			<path class="st21" d="M654.03,250.99c-2.64,2.65-4.28,6.3-4.28,10.34h14.62L654.03,250.99z"/>
			<path class="st22" d="M664.36,261.32L664.36,261.32l10.34,10.34c2.65-2.65,4.28-6.3,4.28-10.34H664.36z"/>
			<path class="st23" d="M664.36,275.94c4.04,0,7.69-1.64,10.34-4.28l-10.34-10.34V275.94z"/>
			<path class="st24" d="M654.03,271.66c2.65,2.65,6.3,4.28,10.34,4.28v-14.62L654.03,271.66z"/>
			<path class="st25" d="M664.36,261.32h-14.62c0,4.04,1.64,7.69,4.28,10.34L664.36,261.32L664.36,261.32z"/>
		</g>
		<circle cx="664.36" cy="261.32" r="10.8"/>
		<circle class="st26" cx="665.82" cy="257.61" r="2.59"/>
		<circle class="st26" cx="671.08" cy="249.77" r="5.26"/>
	</g>
	<g>
		<g>
			<path class="st2" d="M511.91,261.32l15.69-15.69c-4.02-4.02-9.56-6.5-15.69-6.5V261.32L511.91,261.32z"/>
			<path class="st3" d="M511.91,261.32v-22.19c-6.13,0-11.68,2.48-15.69,6.5L511.91,261.32L511.91,261.32z"/>
			<path class="st4" d="M534.1,261.32c0-6.13-2.48-11.68-6.5-15.69l-15.69,15.69H534.1z"/>
			<path class="st5" d="M496.21,245.63c-4.02,4.02-6.5,9.56-6.5,15.69h22.19L496.21,245.63z"/>
			<path class="st6" d="M511.91,261.32L511.91,261.32l15.69,15.69c4.02-4.02,6.5-9.56,6.5-15.69H511.91z"/>
			<path class="st7" d="M511.91,283.52c6.13,0,11.68-2.48,15.69-6.5l-15.69-15.69V283.52z"/>
			<path class="st8" d="M496.21,277.02c4.02,4.02,9.56,6.5,15.69,6.5v-22.19L496.21,277.02z"/>
			<path class="st9" d="M511.91,261.32h-22.19c0,6.13,2.48,11.68,6.5,15.69L511.91,261.32L511.91,261.32z"/>
		</g>
		<g>
			<path class="st10" d="M511.91,261.32l12.6-12.6c-3.23-3.23-7.68-5.22-12.6-5.22V261.32L511.91,261.32z"/>
			<path class="st11" d="M511.91,261.32V243.5c-4.92,0-9.38,1.99-12.6,5.22L511.91,261.32L511.91,261.32z"/>
			<path class="st12" d="M529.73,261.32c0-4.92-1.99-9.38-5.22-12.6l-12.6,12.6H529.73z"/>
			<path class="st13" d="M499.3,248.72c-3.22,3.23-5.22,7.68-5.22,12.6h17.82L499.3,248.72z"/>
			<path class="st14" d="M511.91,261.32L511.91,261.32l12.6,12.6c3.23-3.23,5.22-7.68,5.22-12.6H511.91z"/>
			<path class="st15" d="M511.91,279.14c4.92,0,9.38-1.99,12.6-5.22l-12.6-12.6V279.14z"/>
			<path class="st16" d="M499.3,273.92c3.23,3.22,7.68,5.22,12.6,5.22v-17.82L499.3,273.92z"/>
			<path class="st17" d="M511.91,261.32h-17.82c0,4.92,1.99,9.38,5.22,12.6L511.91,261.32L511.91,261.32z"/>
		</g>
		<g>
			<path class="st18" d="M511.91,261.32l10.34-10.34c-2.65-2.65-6.3-4.28-10.34-4.28V261.32L511.91,261.32z"/>
			<path class="st19" d="M511.91,261.32v-14.62c-4.04,0-7.69,1.64-10.34,4.28L511.91,261.32L511.91,261.32z"/>
			<path class="st20" d="M526.52,261.32c0-4.04-1.64-7.69-4.28-10.34l-10.34,10.34H526.52z"/>
			<path class="st21" d="M501.57,250.99c-2.64,2.65-4.28,6.3-4.28,10.34h14.62L501.57,250.99z"/>
			<path class="st22" d="M511.91,261.32L511.91,261.32l10.34,10.34c2.65-2.65,4.28-6.3,4.28-10.34H511.91z"/>
			<path class="st23" d="M511.91,275.94c4.04,0,7.69-1.64,10.34-4.28l-10.34-10.34V275.94z"/>
			<path class="st24" d="M501.57,271.66c2.65,2.65,6.3,4.28,10.34,4.28v-14.62L501.57,271.66z"/>
			<path class="st25" d="M511.91,261.32h-14.62c0,4.04,1.64,7.69,4.28,10.34L511.91,261.32L511.91,261.32z"/>
		</g>
		<circle cx="511.91" cy="261.32" r="10.8"/>
		<circle class="st26" cx="513.36" cy="257.61" r="2.59"/>
		<circle class="st26" cx="518.62" cy="249.77" r="5.26"/>
	</g>
	<path class="st0" d="M670.62,345.05c-46.91,33.54-110.26,33.54-157.17,0c-7.21-5.17-9.06-14.04-4.6-18.7c0,0,0,0,0,0
		c4.46-4.68,12.34-4.41,18.16-0.3c38.82,27.75,91.24,27.75,130.05,0c5.79-4.11,13.71-4.38,18.16,0.3l0,0
		C679.66,331.01,677.84,339.88,670.62,345.05z"/>
</g>
</svg>
